<svg width="50" height="50" viewBox="0 0 50 50" fill="none" xmlns="http://www.w3.org/2000/svg">
<path d="M38.8414 7.6541C39.5078 7.6541 40.0483 7.11377 40.0483 6.44727V2.63936C40.0483 1.18408 38.865 0 37.4102 0H11.879C11.559 0 11.2521 0.127246 11.0256 0.353516L1.02805 10.3511C0.801776 10.5773 0.67453 10.8844 0.67453 11.2044V47.3605C0.674628 48.8159 1.85861 50 3.31398 50H37.4101C38.8649 50 40.0482 48.8159 40.0482 47.3606V28.9345C40.0483 28.2681 39.5079 27.7276 38.8414 27.7276C38.175 27.7276 37.6346 28.268 37.6346 28.9345V47.3606C37.6346 47.4851 37.5339 47.5863 37.4103 47.5863H3.31408C3.18967 47.5863 3.0884 47.4851 3.0884 47.3606V12.4114H10.4478C11.9027 12.4114 13.0861 11.2278 13.0861 9.77305V2.41367H37.4102C37.5339 2.41367 37.6345 2.51494 37.6345 2.63936V6.44727C37.6345 7.11377 38.1749 7.6541 38.8414 7.6541ZM10.6724 9.77295C10.6724 9.89687 10.5716 9.99766 10.4478 9.99766H4.79562L10.6724 4.1207V9.77295Z" fill="#CC0000"/>
<path d="M48.1314 9.80432L46.7113 8.3845C45.1192 6.79231 42.5285 6.7925 40.9361 8.3845L29.6644 19.6563H10.1132C9.44669 19.6563 8.90636 20.1966 8.90636 20.8631C8.90636 21.5296 9.44669 22.0699 10.1132 22.0699H27.2507L19.9871 29.3335H10.1132C9.44669 29.3335 8.90636 29.8739 8.90636 30.5404C8.90636 31.2069 9.44669 31.7472 10.1132 31.7472H17.5733L17.5539 31.7666C17.4066 31.9139 17.3002 32.0966 17.2444 32.2972L15.3804 39.0108H10.1132C9.44669 39.0108 8.90636 39.5511 8.90636 40.2176C8.90636 40.8841 9.44669 41.4244 10.1132 41.4244H16.298C16.2981 41.4244 16.5625 41.3946 16.6014 41.3844C16.6077 41.3827 24.2183 39.2709 24.2183 39.2709C24.4189 39.2153 24.6017 39.1086 24.7488 38.9614L48.1315 15.5791C49.7234 13.9871 49.7234 11.3965 48.1314 9.80432ZM18.0316 38.4837L19.0167 34.9363L21.5792 37.4988L18.0316 38.4837ZM23.8955 36.4016L20.1142 32.6202L39.4157 13.3187L43.1972 17.1L23.8955 36.4016ZM46.4245 13.8725L44.9039 15.3931L41.1225 11.6116L42.6431 10.091C43.2943 9.43987 44.3537 9.43997 45.0045 10.091L46.4245 11.5111C47.0756 12.1621 47.0756 13.2215 46.4245 13.8725Z" fill="#CC0000"/>
</svg>
