<svg width="50" height="50" viewBox="0 0 50 50" fill="none" xmlns="http://www.w3.org/2000/svg">
<path d="M47.7711 20.1715C46.8308 20.0307 45.8654 19.8956 44.902 19.7701C44.7853 19.7549 44.6906 19.6757 44.6611 19.5685C44.2165 17.9549 43.5713 16.3979 42.7435 14.9407C42.6879 14.8428 42.6983 14.7194 42.7702 14.6259C43.3627 13.8559 43.95 13.0775 44.5159 12.3124C45.28 11.2794 45.169 9.81359 44.2581 8.90256L41.0973 5.74181C40.1863 4.83087 38.7206 4.71993 37.6874 5.48419C36.924 6.04884 36.1457 6.63615 35.374 7.2298C35.2808 7.30167 35.1571 7.31212 35.0592 7.25656C33.6021 6.42882 32.0451 5.78361 30.4314 5.33888C30.3241 5.30948 30.2449 5.21476 30.2296 5.09776C30.1038 4.13292 29.9688 3.16768 29.8284 2.22901C29.6382 0.958205 28.5234 0 27.235 0H22.765C21.4765 0 20.3617 0.958205 20.1718 2.22891C20.0313 3.16778 19.8963 4.13292 19.7705 5.09796C19.7551 5.21485 19.676 5.30939 19.5686 5.33888C17.9549 5.7838 16.3978 6.42892 14.9409 7.25656C14.843 7.31212 14.7194 7.30138 14.626 7.2298C13.8544 6.63615 13.076 6.04884 12.3125 5.48409C11.2792 4.71993 9.8135 4.83106 8.90265 5.74191L5.74191 8.90265C4.83087 9.81379 4.72003 11.2797 5.48429 12.3126C6.05109 13.0788 6.63839 13.8571 7.2299 14.6259C7.30167 14.7192 7.31222 14.8427 7.25665 14.9407C6.42872 16.3982 5.78361 17.9552 5.33898 19.5685C5.30958 19.6756 5.21485 19.7548 5.09806 19.7702C4.13516 19.8958 3.16993 20.0308 2.22911 20.1716C0.958205 20.3616 0 21.4766 0 22.7649V27.235C0 28.5234 0.958205 29.6383 2.22891 29.8284C3.16973 29.9692 4.13507 30.1042 5.09796 30.2297C5.21485 30.2451 5.30939 30.3242 5.33888 30.4315C5.78351 32.0449 6.42872 33.6019 7.25656 35.0593C7.31212 35.1573 7.30158 35.2808 7.2298 35.3741C6.63683 36.1448 6.04952 36.9231 5.48419 37.6875C4.72003 38.7205 4.83077 40.1864 5.74181 41.0974L8.90256 44.2582C9.81369 45.1692 11.2796 45.2802 12.3125 44.5158C13.0759 43.9512 13.8542 43.3639 14.6259 42.7702C14.7192 42.6983 14.8428 42.688 14.9407 42.7434C16.3977 43.5712 17.9546 44.2162 19.5685 44.6611C19.6758 44.6906 19.755 44.7852 19.7703 44.902C19.8961 45.8669 20.0312 46.8322 20.1716 47.7708C20.3617 49.0416 21.4765 49.9998 22.765 49.9998H27.235C28.5234 49.9998 29.6383 49.0416 29.8283 47.7706C29.9688 46.8309 30.1038 45.8656 30.2296 44.9018C30.2449 44.785 30.324 44.6903 30.4313 44.6607C32.045 44.2158 33.6021 43.5707 35.0591 42.7431C35.157 42.6877 35.2805 42.6982 35.3739 42.7698C36.1455 43.3635 36.9239 43.9508 37.6873 44.5154C38.7203 45.2796 40.1861 45.1688 41.0972 44.2578L44.258 41.0971C45.1689 40.186 45.2799 38.7202 44.5157 37.6871C43.9498 36.9223 43.3624 36.1439 42.77 35.3737C42.6982 35.2804 42.6877 35.1569 42.7433 35.059C43.5712 33.6015 44.2163 32.0445 44.6609 30.4312C44.6906 30.3238 44.7851 30.2447 44.902 30.2294C45.8652 30.1038 46.8306 29.9687 47.771 29.828C49.0418 29.638 50 28.5231 50 27.2347V22.7646C50 21.4765 49.0418 20.3615 47.7711 20.1715ZM47.6652 27.2352C47.6652 27.3768 47.5623 27.4989 47.4257 27.5195C46.4997 27.6581 45.5491 27.7909 44.6003 27.9148C43.5497 28.0517 42.6901 28.7961 42.4102 29.8113C42.0168 31.2388 41.4459 32.6167 40.7135 33.9062C40.1927 34.8231 40.2736 35.9582 40.9197 36.798C41.5033 37.5566 42.0817 38.3231 42.6389 39.0763C42.7211 39.1873 42.7074 39.3467 42.6073 39.4468L39.4465 42.6075C39.3463 42.7077 39.187 42.7211 39.0761 42.6391C38.3244 42.083 37.5577 41.5046 36.7977 40.9199C35.958 40.2737 34.823 40.1928 33.9062 40.7135C32.6167 41.4459 31.2388 42.0169 29.8111 42.4104C28.7961 42.6902 28.0517 43.5498 27.9145 44.6005C27.7908 45.5499 27.6578 46.5005 27.5193 47.4259C27.4989 47.5625 27.3766 47.6654 27.235 47.6654H22.765C22.6234 47.6654 22.5011 47.5625 22.4807 47.4258C22.3425 46.5015 22.2094 45.5509 22.0855 44.6006C21.9485 43.5499 21.2039 42.6903 20.1889 42.4105C18.7611 42.017 17.3832 41.446 16.0938 40.7135C15.6917 40.4852 15.2477 40.3725 14.8051 40.3725C14.2383 40.3725 13.6738 40.5571 13.2024 40.9201C12.4423 41.5048 11.6757 42.0832 10.924 42.6393C10.8129 42.7213 10.6538 42.7079 10.5537 42.6077L7.39289 39.447C7.29269 39.3468 7.27902 39.1876 7.36124 39.0765C7.91798 38.3239 8.49631 37.5574 9.08039 36.7982C9.72639 35.9584 9.80744 34.8235 9.28683 33.9067C8.55412 32.6168 7.98332 31.239 7.58986 29.8116C7.31007 28.7965 6.4505 28.0521 5.39991 27.9151C4.45147 27.7914 3.50079 27.6583 2.57432 27.5198C2.4377 27.4993 2.33477 27.3771 2.33477 27.2355V22.7654C2.33477 22.6238 2.4377 22.5016 2.57432 22.4811C3.50079 22.3425 4.45138 22.2095 5.39972 22.0858C6.4504 21.9489 7.30998 21.2044 7.58976 20.1893C7.98302 18.762 8.55402 17.3841 9.28674 16.0942C9.80744 15.1773 9.72639 14.0423 9.08039 13.2027C8.49787 12.4452 7.91945 11.6788 7.36124 10.9243C7.27921 10.8133 7.29279 10.6539 7.39289 10.5539L10.5535 7.39308C10.6535 7.29289 10.8128 7.27951 10.9239 7.36144C11.6755 7.9175 12.4421 8.49592 13.2022 9.08068C14.042 9.72658 15.1769 9.80773 16.0939 9.28693C17.3832 8.55451 18.7611 7.98351 20.1888 7.58996C21.2039 7.31017 21.9485 6.4506 22.0855 5.39991C22.2095 4.44962 22.3424 3.49903 22.4808 2.57442C22.5012 2.43799 22.6235 2.33497 22.7651 2.33497H27.2351C27.3767 2.33497 27.499 2.4379 27.5194 2.57452C27.6578 3.49884 27.7907 4.44933 27.9147 5.39991C28.0517 6.4506 28.7962 7.31017 29.8113 7.58996C31.239 7.98351 32.6168 8.55451 33.9064 9.28693C34.8232 9.80744 35.9582 9.72658 36.7978 9.08049C37.5579 8.49582 38.3245 7.9174 39.0761 7.36134C39.1871 7.27912 39.3465 7.29269 39.4466 7.39298L42.6073 10.5537C42.7075 10.6539 42.721 10.8132 42.639 10.9241C42.0818 11.6775 41.5034 12.4439 40.9198 13.2025C40.2738 14.0424 40.1928 15.1774 40.7136 16.0943C41.4461 17.3838 42.017 18.7616 42.4105 20.1893C42.6903 21.2043 43.5501 21.9487 44.6004 22.0856C45.5492 22.2094 46.4999 22.3424 47.426 22.4809C47.5626 22.5014 47.6655 22.6236 47.6655 22.7652V27.2352H47.6652Z" fill="#CC0000"/>
<path d="M25.0001 14.1471C19.0157 14.1471 14.1471 19.0157 14.1471 25C14.1471 30.9844 19.0157 35.853 25.0001 35.853C30.9845 35.853 35.853 30.9844 35.853 25C35.853 19.0157 30.9845 14.1471 25.0001 14.1471ZM25.0001 33.5181C20.3031 33.5181 16.482 29.6969 16.482 25C16.482 20.3031 20.3033 16.482 25.0001 16.482C29.697 16.482 33.5182 20.3032 33.5182 25C33.5182 29.6969 29.6971 33.5181 25.0001 33.5181Z" fill="#CC0000"/>
</svg>
