<svg width="100" height="100" viewBox="0 0 100 100" fill="none" xmlns="http://www.w3.org/2000/svg">
<path d="M94.3526 13.443L90.0794 9.68016L94.3526 5.91811C95.0172 5.33217 95.2445 4.41894 94.9325 3.59039C94.6189 2.76107 93.8445 2.22549 92.9587 2.22549H75.2754V1.4656C75.2754 0.656127 74.6192 0 73.8098 0C73.0003 0 72.3442 0.656127 72.3442 1.4656V21.2318L60.3073 27.7679C60.2409 27.2384 60.0822 26.7181 59.8312 26.2283L58.1352 22.9171C56.971 20.6436 54.174 19.7425 51.902 20.906L50.5905 21.5774C49.4888 22.142 48.6733 23.1002 48.2933 24.2782C47.9134 25.4554 48.0148 26.7105 48.5794 27.8114L50.2754 31.1233C50.6714 31.8961 51.2566 32.508 51.9447 32.9368C51.0445 34.1491 50.6172 35.6399 50.1778 37.1886L49.8619 38.3071C49.6414 39.0861 50.0946 39.8963 50.8736 40.116C51.0063 40.1542 51.1406 40.1717 51.2726 40.1717C51.9119 40.1717 52.4994 39.7506 52.6825 39.1044L52.9983 37.9882C53.6407 35.723 54.0352 34.51 55.291 33.8279L57.5424 32.6049L57.8201 32.463C57.9124 32.4157 57.9986 32.3623 58.0864 32.3097L74.1325 23.5961C74.031 25.6019 72.9515 27.497 71.1738 28.5766L60.7391 34.9166C60.7269 34.9235 60.7147 34.9304 60.7033 34.938L57.4554 36.9109C56.7642 37.3313 56.5437 38.2331 56.9641 38.9251C57.3601 39.5774 58.184 39.8093 58.8562 39.482L56.3919 46.9314L54.5906 47.6699L49.6925 49.6772L51.104 44.6876C51.3237 43.9086 50.8713 43.0984 50.0923 42.8779C49.3126 42.6566 48.5031 43.1106 48.2826 43.8895L46.0526 51.776C46.0236 51.8775 46.0045 51.9889 45.9999 52.0949L45.4163 62.8157C45.3987 63.2247 45.4857 63.9975 45.2965 64.3965L38.8146 78.0333H34.1042C31.3446 78.0333 29.1001 80.2779 29.1001 83.0366V87.2671C28.4684 86.978 27.7672 86.8162 27.0279 86.8162H15.0658C12.3071 86.8162 10.0625 89.06 10.0625 91.8196V97.0686H6.54382C5.73434 97.0686 5.07822 97.7247 5.07822 98.5342C5.07822 99.3437 5.73434 99.9998 6.54382 99.9998H92.9572C93.7667 99.9998 94.4228 99.3437 94.4228 98.5342C94.4228 97.7247 93.7667 97.0686 92.9572 97.0686H89.1456V59.2917C89.1456 56.5329 86.901 54.2884 84.1422 54.2884H75.2754V28.72C76.9004 26.5174 77.5024 23.6305 76.7478 20.887C76.6296 20.4559 76.3206 20.1019 75.9086 19.9272C75.7064 19.841 75.4898 19.8028 75.2754 19.8112V17.1356H92.958C93.8445 17.1356 94.6189 16.6 94.9317 15.7715C95.2445 14.9429 95.0172 14.0289 94.3526 13.443ZM51.0834 25.1785C51.223 24.7459 51.5221 24.3934 51.9264 24.1867L53.2379 23.5153C53.4851 23.3886 53.7491 23.3284 54.01 23.3284C54.628 23.3284 55.2254 23.6663 55.526 24.253L57.2227 27.5649C57.6187 28.3386 57.3624 29.2762 56.6582 29.75L56.1806 30.0086L55.1727 30.5251C54.3388 30.9524 53.3119 30.6213 52.8847 29.7866L51.1879 26.4755C50.9811 26.0711 50.9438 25.6103 51.0834 25.1785ZM48.1384 78.4842C47.6402 78.2568 47.0985 78.1081 46.5294 78.0554L48.1384 75.9184V78.4842ZM55.0972 66.6747C55.8021 65.8301 55.9967 64.8436 56.1539 64.0486C56.1935 63.8594 56.9168 59.9089 56.9168 59.9089C56.9168 59.9089 57.6012 60.3354 57.6729 60.3659C57.7225 60.3881 57.7576 60.4369 57.7629 60.4941L58.5602 68.5988H53.6484L55.0972 66.6747ZM63.7642 58.5852L62.5267 68.5919H61.5051L60.6804 60.2072C60.5751 59.133 59.9174 58.1954 58.9538 57.7292L57.4798 56.7946L58.4617 51.3526C58.4617 51.3526 62.5984 56.2667 62.6945 56.3918C63.5505 57.5049 63.8435 57.9505 63.7642 58.5852ZM47.9332 65.6783C48.2292 64.7872 48.3666 63.88 48.3437 62.9576L48.8762 53.1798L55.6549 50.402L54.4228 57.2272C54.4189 57.2455 54.4151 57.2646 54.4128 57.2829L53.3936 62.9264C53.2608 63.5108 53.1448 64.3973 52.7801 64.8787L42.8764 78.0333H42.0601L47.9332 65.6783ZM12.9937 91.8188C12.9937 90.6767 13.923 89.7474 15.0658 89.7474H27.0279C28.1708 89.7474 29.1008 90.6767 29.1008 91.8188V97.0686H12.9937V91.8188ZM32.0313 91.8188V83.0366C32.0313 81.8938 32.9613 80.9645 34.1042 80.9645H46.0663C47.2092 80.9645 48.1384 81.8938 48.1384 83.0366V97.0686H32.0321V91.8188H32.0313ZM86.2144 59.2917V97.0686H70.108V88.2811C70.108 87.4716 69.4519 86.8155 68.6424 86.8155C67.8321 86.8155 67.176 87.4716 67.176 88.2811V97.0686H51.0696V73.6014C51.0696 72.4593 51.9989 71.53 53.1418 71.53H65.1039C66.2468 71.53 67.176 72.4593 67.176 73.6014V80.9485C67.176 81.758 67.8321 82.4141 68.6416 82.4141C69.4519 82.4141 70.1072 81.758 70.1072 80.9485V59.2917C70.1072 58.1488 71.0373 57.2196 72.1801 57.2196H73.7945C73.7991 57.2196 73.8044 57.2203 73.8098 57.2203C73.8143 57.2203 73.8197 57.2196 73.8243 57.2196H84.1415C85.2844 57.2196 86.2144 58.1496 86.2144 59.2917ZM72.1801 54.2884C69.4213 54.2884 67.1768 56.5329 67.1768 59.2917V69.0497C66.6519 68.8101 66.0797 68.6583 65.4777 68.6141L66.6732 58.9461C66.9082 57.0617 65.9469 55.8127 65.0177 54.6042C64.9193 54.4761 59.2224 47.7118 59.2224 47.7118L62.7174 37.1452L72.3442 31.2965V54.2884H72.1801ZM75.2754 14.2036V5.15746H90.7806L87.4412 8.09782C86.9865 8.49837 86.7255 9.07515 86.7255 9.68092C86.7255 10.2867 86.9865 10.8635 87.4412 11.264L90.7806 14.2044H75.2754V14.2036Z" fill="#383838"/>
</svg>
