<svg width="100" height="100" viewBox="0 0 100 100" fill="none" xmlns="http://www.w3.org/2000/svg">
<g clip-path="url(#clip0)">
<path d="M76.6264 44.1544C76.6264 40.9886 74.051 38.4134 70.8852 38.4134H60.334C62.8975 35.5319 64.5729 32.2509 64.8965 29.3073C65.0941 27.5095 64.5387 25.7249 63.3721 24.411C62.3059 23.2101 60.8479 22.5407 59.2666 22.5261C59.2482 22.5259 59.2299 22.5259 59.2117 22.5259C57.6822 22.5259 56.2467 23.1149 55.1633 24.1884C54.0797 25.262 53.4801 26.6923 53.4731 28.2187C53.4174 28.5528 52.8295 29.705 51.391 31.073C50.2133 32.1933 48.1789 33.7333 45.1752 34.7085C43.9975 35.0909 42.9211 35.795 41.9762 36.8013C41.4803 37.329 40.7377 38.0579 39.8184 38.7896C39.3672 38.5505 38.8541 38.4138 38.309 38.4138H28.2881C26.5037 38.4138 25.0522 39.8653 25.0522 41.6497V68.372C25.0522 70.1564 26.5037 71.6079 28.2881 71.6079H38.309C39.5254 71.6079 40.5861 70.9325 41.1389 69.9378H66.7098C69.415 69.9378 71.6158 67.737 71.6158 65.0318C71.6158 64.1222 71.3672 63.2698 70.934 62.5386C72.3436 61.6757 73.2859 60.1214 73.2859 58.3511C73.2859 57.4415 73.0373 56.5892 72.6041 55.8579C74.0137 54.995 74.9561 53.4407 74.9561 51.6704C74.9561 50.6466 74.6408 49.695 74.1023 48.9075C75.6244 47.8737 76.6264 46.1288 76.6264 44.1544ZM70.8852 46.764H70.05C69.1854 46.764 68.4842 47.465 68.4842 48.3298C68.4842 49.1944 69.1852 49.8956 70.05 49.8956C71.0285 49.8956 71.8246 50.6917 71.8246 51.6702C71.8246 52.6487 71.0285 53.4448 70.05 53.4448H68.3799C67.5152 53.4448 66.8141 54.1458 66.8141 55.0107C66.8141 55.8753 67.515 56.5765 68.3799 56.5765C69.3584 56.5765 70.1545 57.3726 70.1545 58.3511C70.1545 59.3296 69.3584 60.1257 68.3799 60.1257H66.7098C65.8451 60.1257 65.1439 60.8267 65.1439 61.6915C65.1439 62.5562 65.8449 63.2573 66.7098 63.2573C67.6883 63.2573 68.4844 64.0534 68.4844 65.0319C68.4844 66.0105 67.6883 66.8066 66.7098 66.8066H41.5449V51.6708C41.5449 50.8062 40.844 50.105 39.9791 50.105C39.1143 50.105 38.4133 50.806 38.4133 51.6708V68.3722C38.4133 68.4298 38.3666 68.4765 38.309 68.4765H28.2881C28.2305 68.4765 28.1838 68.4298 28.1838 68.3722V41.6491C28.1838 41.5915 28.2305 41.5448 28.2881 41.5448H38.309C38.3666 41.5448 38.4133 41.5915 38.4133 41.6491V44.9896C38.4133 45.8542 39.1143 46.5554 39.9791 46.5554C40.844 46.5554 41.5449 45.8544 41.5449 44.9896V41.6491C41.5449 41.5732 41.5387 41.4987 41.5334 41.4241C42.7074 40.5153 43.6463 39.5966 44.2588 38.9446C44.8383 38.3273 45.4719 37.9042 46.142 37.6868C49.8275 36.4903 52.3078 34.5638 53.7393 33.1583C55.5334 31.3968 56.6043 29.5605 56.6043 28.2458C56.6043 27.5513 56.8752 26.9003 57.3672 26.4128C57.8652 25.9192 58.5248 25.6585 59.2375 25.6575C60.1152 25.6657 60.6965 26.1147 61.0299 26.4901C61.6014 27.1337 61.8826 28.0591 61.7832 28.9651C61.4412 32.0763 58.9531 35.922 55.4445 38.7622C54.9291 39.1796 54.7324 39.8765 54.9537 40.5017C55.175 41.1269 55.7664 41.5448 56.4297 41.5448H70.8848C72.3238 41.5448 73.4943 42.7153 73.4943 44.1544C73.4943 45.5935 72.324 46.764 70.8852 46.764Z" fill="#383838"/>
<path d="M33.2986 61.7786C32.434 61.7786 31.7246 62.4879 31.7246 63.3526C31.7246 64.2172 32.434 64.9266 33.2986 64.9266C34.1633 64.9266 34.8727 64.2172 34.8727 63.3526C34.8729 62.4881 34.1635 61.7786 33.2986 61.7786Z" fill="#383838"/>
<path d="M97.2087 50.0004L99.8986 42.8826C100.094 42.3649 100.002 41.7822 99.6558 41.35L94.8982 35.4117L95.2568 27.8112C95.283 27.2584 95.015 26.7324 94.5525 26.4287L88.1927 22.2512L86.1853 14.9117C86.0392 14.3778 85.622 13.9606 85.0882 13.8147L77.7488 11.8073L73.5712 5.44768C73.2673 4.98499 72.7416 4.71819 72.1888 4.74338L64.5882 5.10198L58.65 0.344361C58.2179 -0.0017332 57.6353 -0.094116 57.1173 0.101587L49.9996 2.79143L42.8822 0.101782C42.364 -0.094116 41.7816 -0.00173323 41.3496 0.344556L35.4113 5.10217L27.8107 4.74358C27.2552 4.71741 26.732 4.98538 26.4283 5.44788L22.2509 11.8076L14.9115 13.8151C14.3775 13.9612 13.9603 14.3783 13.8144 14.9121L11.807 22.2516L5.44722 26.4289C4.98452 26.7328 4.71675 27.2586 4.74292 27.8114L5.10151 35.4119L0.343895 41.3502C-0.00219862 41.7822 -0.0945814 42.3649 0.101122 42.8828L2.79077 50.0004L0.100926 57.118C-0.0949721 57.6358 -0.00258924 58.2184 0.3437 58.6506L5.10132 64.5889L4.74272 72.1895C4.71655 72.7422 4.98452 73.2682 5.44702 73.5719L11.8068 77.7494L13.8142 85.0889C13.9603 85.6229 14.3775 86.0401 14.9113 86.186L22.2507 88.1934L26.4281 94.5531C26.732 95.0158 27.2587 95.2819 27.8105 95.2574L35.4111 94.8989L41.3494 99.6565C41.7814 100.003 42.3642 100.095 42.882 99.8992L49.9998 97.2094L57.1175 99.8992C57.2972 99.967 57.4845 100 57.6709 100C58.0216 100 58.3679 99.8825 58.65 99.6565L64.5882 94.8989L72.1888 95.2574C72.7433 95.2821 73.2673 95.0156 73.5712 94.5531L77.7488 88.1934L85.0882 86.186C85.6222 86.0399 86.0394 85.6227 86.1853 85.0889L88.1927 77.7494L94.5525 73.5719C95.0152 73.268 95.283 72.7422 95.2568 72.1895L94.8982 64.5889L99.6558 58.6506C100.002 58.2186 100.094 57.636 99.8986 57.118L97.2087 50.0004ZM94.0703 50.5539L96.6535 57.3897L92.0843 63.0926C91.8459 63.3901 91.7242 63.7645 91.7421 64.1453L92.0867 71.4448L85.9791 75.4567C85.6605 75.6658 85.4289 75.9844 85.3283 76.3524L83.4003 83.401L76.3517 85.3289C75.9839 85.4295 75.6656 85.661 75.456 85.9797L71.4441 92.0873L64.1447 91.7428C63.7636 91.7252 63.3894 91.8465 63.0919 92.085L57.389 96.6541L50.5533 94.0709C50.375 94.0035 50.1873 93.9699 49.9998 93.9699C49.8123 93.9699 49.6246 94.0037 49.4462 94.0709L42.6105 96.6541L36.9076 92.085C36.6101 91.8465 36.2351 91.7252 35.8548 91.7428L28.5554 92.0873L24.5435 85.9797C24.3343 85.6612 24.0158 85.4295 23.6478 85.3289L16.5992 83.401L14.6712 76.3524C14.5707 75.9846 14.3392 75.6662 14.0205 75.4567L7.91284 71.4448L8.25737 64.1453C8.27534 63.7643 8.15366 63.3901 7.91518 63.0926L3.34604 57.3897L5.92944 50.5539C6.06421 50.1973 6.06421 49.8035 5.92944 49.4469L3.34604 42.6112L7.91518 36.9082C8.15366 36.6108 8.27534 36.2364 8.25737 35.8555L7.91284 28.5561L14.0205 24.5442C14.339 24.335 14.5707 24.0164 14.6712 23.6485L16.5992 16.5998L23.6478 14.6719C24.0156 14.5713 24.3339 14.3399 24.5435 14.0211L28.5554 7.9135L35.8548 8.25803C36.2353 8.27581 36.6101 8.15432 36.9076 7.91584L42.6105 3.3467L49.4462 5.9301C49.8031 6.06487 50.1966 6.06487 50.5533 5.9301L57.389 3.3467L63.0919 7.91584C63.3894 8.15452 63.764 8.276 64.1447 8.25803L71.4441 7.9135L75.456 14.0211C75.6652 14.3397 75.9837 14.5713 76.3517 14.6719L83.4003 16.5998L85.3283 23.6485C85.4289 24.0162 85.6603 24.3346 85.9791 24.5442L92.0867 28.5561L91.7421 35.8555C91.7242 36.2365 91.8459 36.6108 92.0843 36.9082L96.6535 42.6112L94.0701 49.4469C93.9355 49.8037 93.9355 50.1973 94.0703 50.5539Z" fill="#383838"/>
<path d="M79.4207 22.9637C79.031 22.5395 78.6269 22.1176 78.2189 21.7098C77.8109 21.302 77.3893 20.8977 76.965 20.5081C76.3281 19.9233 75.3377 19.9655 74.7527 20.6026C74.168 21.2395 74.2102 22.2301 74.8473 22.8149C75.2385 23.1743 75.6279 23.5473 76.0045 23.9239C76.3809 24.3003 76.7541 24.6899 77.1137 25.0813C77.4225 25.4176 77.8443 25.5882 78.2676 25.5882C78.6459 25.5882 79.0254 25.4518 79.326 25.1758C79.9631 24.5913 80.0055 23.6007 79.4207 22.9637Z" fill="#383838"/>
<path d="M71.4047 16.2354C63.8539 11.4249 54.7629 9.28701 45.8072 10.2142C36.7203 11.1556 28.152 15.238 21.6801 21.7097C14.5576 28.8321 10.4107 38.2938 10.0033 48.3519C9.59844 58.3507 12.9102 68.0585 19.3287 75.6866C19.6383 76.0546 20.0812 76.2442 20.5277 76.2442C20.8836 76.2442 21.2414 76.1235 21.535 75.8767C22.1965 75.3198 22.2816 74.3321 21.725 73.6706C15.8107 66.6415 12.7592 57.695 13.1322 48.4788C13.5076 39.2089 17.3295 30.4886 23.8941 23.9241C29.859 17.9591 37.7559 14.1964 46.1297 13.329C54.3865 12.4735 62.7647 14.444 69.7219 18.8765C70.4514 19.3411 71.4189 19.1267 71.8836 18.3974C72.3484 17.6679 72.1338 16.7001 71.4047 16.2354Z" fill="#383838"/>
<path d="M83.6935 28.5241C83.2289 27.7946 82.2605 27.5801 81.5316 28.0448C80.8021 28.5094 80.5879 29.4774 81.0525 30.2065C85.485 37.1639 87.4551 45.5424 86.6 53.7987C85.7326 62.1725 81.9699 70.0692 76.0051 76.0344C69.4404 82.5989 60.7201 86.4209 51.4504 86.7963C42.2357 87.1709 33.2875 84.118 26.2586 78.2039C25.5971 77.6471 24.6094 77.7323 24.0525 78.394C23.4957 79.0555 23.5809 80.0432 24.2426 80.6C31.4537 86.6674 40.5221 89.9588 49.9391 89.9586C50.4838 89.9586 51.0307 89.9475 51.5775 89.9254C61.6355 89.5182 71.0971 85.3713 78.2197 78.2489C84.6916 71.777 88.7742 63.2084 89.7152 54.1215C90.6426 45.1653 88.5041 36.0747 83.6935 28.5241Z" fill="#383838"/>
</g>
<defs>
<clipPath id="clip0">
<rect width="100" height="100" fill="white"/>
</clipPath>
</defs>
</svg>
