<?xml version="1.0" encoding="UTF-8"?>
<!DOCTYPE svg PUBLIC "-//W3C//DTD SVG 1.1//EN" "http://www.w3.org/Graphics/SVG/1.1/DTD/svg11.dtd">
<!-- Creator: CorelDRAW 2018 (64-Bit) -->
<svg xmlns="http://www.w3.org/2000/svg" xml:space="preserve" width="163px" height="46px" version="1.1" style="shape-rendering:geometricPrecision; text-rendering:geometricPrecision; image-rendering:optimizeQuality; fill-rule:evenodd; clip-rule:evenodd"
viewBox="0 0 163 46"
 xmlns:xlink="http://www.w3.org/1999/xlink">
 <defs>
  <style type="text/css">
   <![CDATA[
    .fil0 {fill:#383838;fill-rule:nonzero}
    .fil1 {fill:#CC0000;fill-rule:nonzero}
   ]]>
  </style>
 </defs>
 <g id="Слой_x0020_1">
  <metadata id="CorelCorpID_0Corel-Layer"/>
  <g id="_2971670177584">
   <g>
    <path class="fil0" d="M63.05 12.17l0 -11.8 3.82 0c1.34,0 2.35,0.23 3.02,0.7 0.67,0.48 1.01,1.18 1.01,2.14 0,0.29 -0.04,0.58 -0.11,0.86 -0.07,0.28 -0.17,0.54 -0.32,0.77 -0.14,0.24 -0.32,0.44 -0.54,0.62 -0.22,0.18 -0.47,0.33 -0.77,0.43 0.3,0.05 0.58,0.14 0.84,0.28 0.27,0.15 0.51,0.33 0.71,0.55 0.2,0.23 0.36,0.5 0.47,0.8 0.12,0.31 0.18,0.65 0.18,1.03 0,1.21 -0.4,2.11 -1.21,2.72 -0.81,0.6 -1.97,0.9 -3.5,0.9l-3.6 0zm5.53 -8.58c0,-0.22 -0.03,-0.42 -0.1,-0.6 -0.08,-0.18 -0.19,-0.34 -0.35,-0.46 -0.16,-0.13 -0.37,-0.23 -0.62,-0.3 -0.25,-0.07 -0.55,-0.1 -0.91,-0.1l-1.34 0 0 3.12 1.34 0c0.37,0 0.67,-0.04 0.92,-0.13 0.25,-0.08 0.46,-0.2 0.62,-0.36 0.16,-0.15 0.27,-0.33 0.34,-0.53 0.07,-0.2 0.1,-0.41 0.1,-0.64zm-1.77 6.77c0.36,0 0.67,-0.05 0.94,-0.14 0.26,-0.08 0.49,-0.21 0.67,-0.37 0.18,-0.16 0.32,-0.35 0.41,-0.57 0.1,-0.21 0.14,-0.44 0.14,-0.69 0,-0.51 -0.19,-0.91 -0.57,-1.2 -0.39,-0.29 -0.97,-0.43 -1.76,-0.43l-1.38 0 0 3.4 1.55 0z"/>
    <polygon id="1" class="fil0" points="73.72,12.17 73.72,0.37 80.83,0.37 80.83,2.26 75.98,2.26 75.98,5.18 80.61,5.18 80.61,7.01 75.98,7.01 75.98,10.29 80.83,10.29 80.83,12.17 "/>
    <path id="2" class="fil0" d="M87.19 5.11c0.76,0 1.43,0.08 2,0.26 0.57,0.17 1.04,0.41 1.41,0.72 0.37,0.3 0.64,0.66 0.83,1.08 0.18,0.41 0.27,0.86 0.27,1.34 0,1.21 -0.4,2.12 -1.2,2.74 -0.8,0.62 -1.97,0.92 -3.5,0.92l-3.6 0 0 -11.8 7.49 0 0 1.76 -5.29 0 0 2.98 1.59 0zm-0.03 5.29c0.35,0 0.66,-0.05 0.93,-0.15 0.27,-0.1 0.49,-0.23 0.67,-0.4 0.19,-0.17 0.32,-0.37 0.42,-0.59 0.09,-0.22 0.14,-0.46 0.14,-0.71 0,-0.25 -0.05,-0.48 -0.14,-0.69 -0.08,-0.21 -0.22,-0.39 -0.41,-0.55 -0.19,-0.14 -0.43,-0.26 -0.72,-0.34 -0.3,-0.08 -0.65,-0.12 -1.07,-0.12l-1.38 0 0 3.55 1.56 0z"/>
    <polygon id="3" class="fil0" points="110.39,12.17 110.18,5.5 110.1,2.83 109.53,4.63 108.21,8.66 106.82,8.66 105.64,4.63 105.15,2.83 105.08,5.45 104.88,12.17 102.99,12.17 103.57,0.37 106.09,0.37 107.12,3.73 107.62,5.62 108.12,3.84 109.21,0.37 111.77,0.37 112.35,12.17 "/>
    <path id="4" class="fil0" d="M120.44 12.17l-0.65 -2.33 -4.13 0 -0.66 2.33 -2.21 0 3.5 -11.8 3.1 0 3.5 11.8 -2.45 0zm-2.69 -9.65l-1.57 5.51 3.1 0 -1.53 -5.51z"/>
    <path id="5" class="fil0" d="M131.98 11.71c-0.52,0.21 -1.03,0.37 -1.52,0.48 -0.49,0.1 -1,0.15 -1.53,0.15 -0.85,0 -1.6,-0.13 -2.25,-0.38 -0.65,-0.25 -1.21,-0.62 -1.65,-1.11 -0.45,-0.5 -0.79,-1.11 -1.02,-1.84 -0.23,-0.73 -0.35,-1.58 -0.35,-2.55 0,-1 0.12,-1.88 0.38,-2.65 0.25,-0.78 0.61,-1.43 1.08,-1.97 0.47,-0.53 1.04,-0.94 1.71,-1.22 0.67,-0.28 1.43,-0.42 2.26,-0.42 0.28,0 0.53,0.01 0.77,0.02 0.24,0.02 0.47,0.04 0.69,0.07 0.24,0.03 0.47,0.08 0.7,0.13 0.24,0.06 0.48,0.13 0.73,0.21l0 2.2c-0.51,-0.24 -1,-0.41 -1.46,-0.51 -0.46,-0.1 -0.88,-0.16 -1.26,-0.16 -0.56,0 -1.04,0.11 -1.44,0.31 -0.39,0.2 -0.72,0.48 -0.98,0.85 -0.25,0.36 -0.44,0.79 -0.56,1.3 -0.12,0.5 -0.18,1.05 -0.18,1.66 0,0.63 0.06,1.2 0.19,1.71 0.12,0.5 0.31,0.93 0.57,1.28 0.26,0.35 0.59,0.61 0.99,0.8 0.4,0.18 0.88,0.27 1.44,0.27 0.19,0 0.41,-0.02 0.64,-0.06 0.23,-0.04 0.46,-0.09 0.7,-0.15 0.24,-0.06 0.48,-0.14 0.71,-0.23 0.23,-0.08 0.45,-0.17 0.64,-0.26l0 2.07z"/>
    <polygon id="6" class="fil0" points="139.31,2.22 139.31,12.17 137.03,12.17 137.03,2.22 133.79,2.22 133.79,0.37 142.54,0.37 142.54,2.22 "/>
    <polygon id="7" class="fil0" points="144.93,12.17 144.93,0.37 152.03,0.37 152.03,2.26 147.18,2.26 147.18,5.18 151.81,5.18 151.81,7.01 147.18,7.01 147.18,10.29 152.03,10.29 152.03,12.17 "/>
    <path id="8" class="fil0" d="M162.85 4.13c0,0.61 -0.1,1.18 -0.31,1.7 -0.2,0.52 -0.51,0.97 -0.91,1.35 -0.41,0.38 -0.91,0.67 -1.51,0.88 -0.6,0.22 -1.3,0.32 -2.1,0.32l-1.13 0 0 3.79 -2.24 0 0 -11.8 3.46 0c0.77,0 1.45,0.08 2.03,0.25 0.59,0.16 1.08,0.41 1.49,0.73 0.4,0.32 0.7,0.71 0.91,1.18 0.2,0.46 0.31,1 0.31,1.6zm-2.33 0.15c0,-0.31 -0.05,-0.59 -0.15,-0.85 -0.1,-0.25 -0.25,-0.47 -0.45,-0.65 -0.2,-0.18 -0.46,-0.32 -0.77,-0.41 -0.31,-0.1 -0.67,-0.15 -1.09,-0.15l-1.17 0 0 4.31 1.24 0c0.39,0 0.73,-0.05 1.02,-0.16 0.3,-0.1 0.55,-0.25 0.75,-0.45 0.2,-0.2 0.35,-0.44 0.46,-0.71 0.11,-0.28 0.16,-0.59 0.16,-0.93z"/>
    <polygon id="9" class="fil0" points="94.68,8.23 94.68,6.27 100.3,6.27 100.3,8.23 "/>
    <polygon class="fil0" points="48.74,46 48.74,34.2 55.85,34.2 55.85,36.08 51,36.08 51,39.01 55.63,39.01 55.63,40.84 51,40.84 51,44.11 55.85,44.11 55.85,46 "/>
    <path id="1" class="fil0" d="M58.42 46l0 -11.8 3.81 0c1.34,0 2.35,0.23 3.02,0.7 0.67,0.47 1.01,1.18 1.01,2.13 0,0.3 -0.03,0.59 -0.1,0.86 -0.07,0.28 -0.18,0.54 -0.33,0.78 -0.14,0.23 -0.32,0.44 -0.54,0.62 -0.21,0.18 -0.47,0.32 -0.77,0.42 0.3,0.05 0.58,0.15 0.85,0.29 0.26,0.14 0.5,0.32 0.7,0.55 0.2,0.23 0.36,0.49 0.48,0.8 0.11,0.31 0.17,0.65 0.17,1.03 0,1.2 -0.4,2.11 -1.21,2.71 -0.8,0.61 -1.97,0.91 -3.49,0.91l-3.6 0zm5.53 -8.58c0,-0.23 -0.04,-0.43 -0.11,-0.61 -0.07,-0.18 -0.19,-0.33 -0.35,-0.46 -0.16,-0.12 -0.37,-0.22 -0.61,-0.29 -0.26,-0.07 -0.56,-0.11 -0.92,-0.11l-1.34 0 0 3.13 1.34 0c0.37,0 0.67,-0.04 0.92,-0.13 0.25,-0.09 0.46,-0.21 0.62,-0.36 0.16,-0.16 0.28,-0.33 0.34,-0.53 0.07,-0.2 0.11,-0.41 0.11,-0.64zm-1.78 6.77c0.36,0 0.67,-0.05 0.94,-0.14 0.27,-0.09 0.49,-0.22 0.67,-0.37 0.19,-0.16 0.32,-0.35 0.42,-0.57 0.09,-0.22 0.14,-0.45 0.14,-0.69 0,-0.52 -0.2,-0.92 -0.58,-1.2 -0.38,-0.29 -0.97,-0.44 -1.76,-0.44l-1.38 0 0 3.41 1.55 0z"/>
    <path id="2" class="fil0" d="M76.49 45.54c-0.53,0.21 -1.03,0.37 -1.52,0.47 -0.5,0.1 -1.01,0.16 -1.54,0.16 -0.84,0 -1.6,-0.13 -2.25,-0.38 -0.65,-0.25 -1.2,-0.62 -1.65,-1.12 -0.45,-0.49 -0.79,-1.1 -1.02,-1.83 -0.23,-0.73 -0.35,-1.59 -0.35,-2.56 0,-0.99 0.13,-1.88 0.38,-2.65 0.25,-0.77 0.62,-1.43 1.08,-1.96 0.48,-0.53 1.05,-0.94 1.72,-1.22 0.67,-0.28 1.42,-0.42 2.26,-0.42 0.27,0 0.52,0.01 0.76,0.02 0.24,0.01 0.47,0.03 0.7,0.07 0.23,0.03 0.46,0.07 0.7,0.13 0.23,0.05 0.47,0.12 0.73,0.21l0 2.2c-0.51,-0.24 -1,-0.41 -1.46,-0.51 -0.47,-0.11 -0.89,-0.16 -1.27,-0.16 -0.56,0 -1.03,0.1 -1.43,0.3 -0.4,0.21 -0.73,0.49 -0.98,0.85 -0.26,0.37 -0.44,0.8 -0.56,1.31 -0.12,0.5 -0.19,1.05 -0.19,1.65 0,0.64 0.07,1.21 0.19,1.72 0.12,0.5 0.31,0.92 0.57,1.27 0.26,0.35 0.59,0.62 1,0.8 0.4,0.19 0.88,0.28 1.43,0.28 0.2,0 0.41,-0.02 0.64,-0.06 0.23,-0.04 0.47,-0.09 0.71,-0.16 0.24,-0.06 0.47,-0.13 0.7,-0.22 0.23,-0.09 0.45,-0.18 0.65,-0.27l0 2.08z"/>
    <polygon id="3" class="fil0" points="79.26,46 79.26,34.2 86.36,34.2 86.36,36.08 81.52,36.08 81.52,39.01 86.14,39.01 86.14,40.84 81.52,40.84 81.52,44.11 86.36,44.11 86.36,46 "/>
    <polygon id="4" class="fil0" points="89.43,46 89.43,34.2 96.53,34.2 96.53,36.08 91.69,36.08 91.69,39.01 96.31,39.01 96.31,40.84 91.69,40.84 91.69,44.11 96.53,44.11 96.53,46 "/>
    <path id="5" class="fil0" d="M99.1 46l0 -11.8 3.82 0c1.34,0 2.35,0.23 3.02,0.7 0.67,0.47 1.01,1.18 1.01,2.13 0,0.3 -0.04,0.59 -0.11,0.86 -0.07,0.28 -0.17,0.54 -0.32,0.78 -0.14,0.23 -0.32,0.44 -0.54,0.62 -0.22,0.18 -0.47,0.32 -0.77,0.42 0.3,0.05 0.58,0.15 0.84,0.29 0.27,0.14 0.5,0.32 0.71,0.55 0.2,0.23 0.36,0.49 0.47,0.8 0.12,0.31 0.18,0.65 0.18,1.03 0,1.2 -0.41,2.11 -1.21,2.71 -0.81,0.61 -1.97,0.91 -3.5,0.91l-3.6 0zm5.53 -8.58c0,-0.23 -0.03,-0.43 -0.1,-0.61 -0.08,-0.18 -0.19,-0.33 -0.35,-0.46 -0.16,-0.12 -0.37,-0.22 -0.62,-0.29 -0.25,-0.07 -0.55,-0.11 -0.91,-0.11l-1.35 0 0 3.13 1.35 0c0.37,0 0.67,-0.04 0.92,-0.13 0.25,-0.09 0.46,-0.21 0.62,-0.36 0.16,-0.16 0.27,-0.33 0.34,-0.53 0.07,-0.2 0.1,-0.41 0.1,-0.64zm-1.77 6.77c0.36,0 0.67,-0.05 0.94,-0.14 0.26,-0.09 0.49,-0.22 0.67,-0.37 0.18,-0.16 0.32,-0.35 0.41,-0.57 0.1,-0.22 0.14,-0.45 0.14,-0.69 0,-0.52 -0.19,-0.92 -0.57,-1.2 -0.39,-0.29 -0.97,-0.44 -1.76,-0.44l-1.39 0 0 3.41 1.56 0z"/>
    <path class="fil0" d="M60.18 29.09l-0.65 -2.34 -4.12 0 -0.67 2.34 -2.2 0 3.49 -11.81 3.11 0 3.5 11.81 -2.46 0zm-2.68 -9.65l-1.58 5.5 3.11 0 -1.53 -5.5z"/>
    <path id="1" class="fil0" d="M62.85 27.09c0.18,0.01 0.34,0.01 0.5,-0.01 0.15,-0.02 0.3,-0.08 0.44,-0.17 0.15,-0.09 0.28,-0.23 0.4,-0.42 0.12,-0.19 0.24,-0.44 0.35,-0.76 0.1,-0.32 0.2,-0.72 0.29,-1.2 0.09,-0.49 0.17,-1.07 0.24,-1.75 0.08,-0.69 0.14,-1.48 0.2,-2.39 0.05,-0.9 0.1,-1.94 0.13,-3.11l6.44 0 0 11.81 -2.24 0 0 -9.85 -2.16 0c-0.06,1.54 -0.14,2.87 -0.26,3.98 -0.12,1.11 -0.28,2.05 -0.47,2.82 -0.19,0.76 -0.41,1.37 -0.67,1.82 -0.26,0.44 -0.56,0.77 -0.89,0.99 -0.33,0.21 -0.69,0.31 -1.09,0.32 -0.41,0.01 -0.85,-0.04 -1.32,-0.16l0.11 -1.92z"/>
    <polygon id="2" class="fil0" points="74.5,29.09 74.5,17.28 81.61,17.28 81.61,19.17 76.76,19.17 76.76,22.09 81.38,22.09 81.38,23.92 76.76,23.92 76.76,27.2 81.61,27.2 81.61,29.09 "/>
    <polygon id="3" class="fil0" points="89.98,29.09 86.43,23.38 86.43,29.09 84.17,29.09 84.17,17.28 86.43,17.28 86.43,22.67 89.96,17.28 92.65,17.28 88.64,22.91 92.86,29.09 "/>
    <path id="4" class="fil0" d="M102.24 28.62c-0.52,0.22 -1.02,0.37 -1.52,0.48 -0.49,0.1 -1,0.15 -1.53,0.15 -0.85,0 -1.6,-0.12 -2.25,-0.37 -0.65,-0.25 -1.2,-0.62 -1.65,-1.12 -0.45,-0.49 -0.79,-1.11 -1.02,-1.84 -0.23,-0.73 -0.35,-1.58 -0.35,-2.55 0,-0.99 0.13,-1.88 0.38,-2.65 0.25,-0.78 0.61,-1.43 1.08,-1.96 0.47,-0.54 1.04,-0.94 1.71,-1.22 0.68,-0.28 1.43,-0.42 2.27,-0.42 0.27,0 0.52,0 0.76,0.02 0.24,0.01 0.47,0.03 0.7,0.06 0.23,0.04 0.46,0.08 0.69,0.13 0.24,0.06 0.48,0.13 0.73,0.21l0 2.2c-0.51,-0.24 -0.99,-0.41 -1.46,-0.51 -0.46,-0.1 -0.88,-0.15 -1.26,-0.15 -0.56,0 -1.04,0.1 -1.43,0.3 -0.4,0.2 -0.73,0.48 -0.99,0.85 -0.25,0.36 -0.44,0.8 -0.56,1.3 -0.12,0.5 -0.18,1.06 -0.18,1.66 0,0.64 0.06,1.21 0.19,1.71 0.12,0.5 0.31,0.93 0.57,1.28 0.26,0.35 0.59,0.61 0.99,0.8 0.4,0.18 0.88,0.27 1.44,0.27 0.19,0 0.41,-0.01 0.64,-0.05 0.23,-0.04 0.47,-0.09 0.7,-0.16 0.24,-0.06 0.48,-0.14 0.71,-0.22 0.23,-0.09 0.45,-0.18 0.64,-0.27l0 2.07z"/>
    <polygon id="5" class="fil0" points="105.02,29.09 105.02,17.28 112.12,17.28 112.12,19.17 107.27,19.17 107.27,22.09 111.9,22.09 111.9,23.92 107.27,23.92 107.27,27.2 112.12,27.2 112.12,29.09 "/>
    <path id="6" class="fil0" d="M120.61 29.09l0 -7.55 -0.02 0 -4.09 7.55 -2.14 0 0 -11.81 2.23 0 0 7.55 0.02 0 4.1 -7.55 2.14 0 0 11.81 -2.24 0zm1.09 -14.95c0,0.82 -0.28,1.46 -0.84,1.92 -0.57,0.46 -1.33,0.69 -2.29,0.69 -0.55,0 -1.02,-0.07 -1.41,-0.2 -0.38,-0.13 -0.7,-0.32 -0.94,-0.55 -0.24,-0.24 -0.42,-0.51 -0.53,-0.83 -0.11,-0.31 -0.17,-0.66 -0.17,-1.03l2.02 0c0,0.2 0.02,0.38 0.06,0.55 0.04,0.16 0.1,0.3 0.18,0.42 0.09,0.11 0.19,0.2 0.32,0.26 0.14,0.07 0.3,0.1 0.5,0.1 0.19,0 0.36,-0.04 0.5,-0.11 0.14,-0.07 0.25,-0.17 0.33,-0.29 0.08,-0.12 0.15,-0.26 0.19,-0.43 0.04,-0.17 0.06,-0.33 0.06,-0.5l2.02 0z"/>
   </g>
   <g>
    <polygon class="fil1" points="41.48,39.85 38.84,46 12.06,46 31.72,0.17 58.49,0.17 55.85,6.32 35.78,6.32 29.9,20.01 49.98,20.01 47.34,26.16 27.25,26.16 21.37,39.85 "/>
    <polygon class="fil1" points="6.67,46 0,46 19.66,0.17 26.36,0.17 "/>
   </g>
  </g>
 </g>
</svg>
