<svg width="50" height="50" viewBox="0 0 50 50" fill="none" xmlns="http://www.w3.org/2000/svg">
<g clip-path="url(#clip0)">
<path d="M49.9653 12.3666C49.9633 10.9556 48.8147 9.80908 47.4041 9.80908C47.4029 9.80908 47.4017 9.80908 47.4008 9.80908L2.55758 9.8707C1.8735 9.87158 1.23063 10.1389 0.747529 10.6232C0.264522 11.1077 -0.000907246 11.7514 -2.83419e-05 12.4352L0.0346396 37.6333C0.0355185 38.3174 0.302803 38.9603 0.787177 39.4434C1.27067 39.9256 1.91276 40.191 2.59567 40.191C2.59684 40.191 2.59811 40.191 2.59909 40.191L47.4422 40.1293C48.8541 40.1274 50.0014 38.9771 49.9998 37.5648L49.9653 12.3666ZM44.5908 12.374L25.0019 25.9916L5.37496 12.4279L44.5908 12.374ZM33.2857 28.5616L44.9039 37.5718L5.06295 37.6265L16.752 28.5616C17.3108 28.1281 17.4125 27.3238 16.9791 26.7648C16.5456 26.206 15.7413 26.1043 15.1824 26.5377L2.59381 36.3002L2.56256 13.5976L24.2758 28.6032C24.4949 28.7547 24.7493 28.8302 25.0038 28.8302C25.2594 28.8302 25.5152 28.7538 25.7348 28.6011L47.4058 13.5363L47.4387 36.2966L34.8551 26.5378C34.2966 26.1045 33.4919 26.2061 33.0585 26.7649C32.625 27.3237 32.7267 28.1282 33.2857 28.5616Z" fill="#CC0000"/>
</g>
<defs>
<clipPath id="clip0">
<rect width="50" height="50" fill="white"/>
</clipPath>
</defs>
</svg>
