<svg width="100" height="100" viewBox="0 0 100 100" fill="none" xmlns="http://www.w3.org/2000/svg">
<g clip-path="url(#clip0)">
<path d="M62.765 12.4603C51.7653 6.90207 38.5151 9.02727 29.7942 17.7484C19.6584 27.8839 18.644 44.0453 27.4346 55.341C27.7454 55.7402 28.2098 55.9492 28.6794 55.9492C29.0176 55.9492 29.3585 55.8408 29.6462 55.6168C30.3331 55.0822 30.4565 54.0922 29.9221 53.4053C22.1059 43.3619 23.0092 28.9908 32.0231 19.9769C39.779 12.2206 51.5618 10.3304 61.3439 15.2732C62.1204 15.6661 63.0685 15.354 63.4611 14.5773C63.8535 13.8005 63.5421 12.8527 62.765 12.4603Z" fill="#383838"/>
<path d="M75.3492 25.0467C74.9566 24.2699 74.0091 23.9582 73.2318 24.3504C72.455 24.7427 72.1431 25.6904 72.5355 26.4676C77.4748 36.248 75.5836 48.0293 67.8294 55.7832C58.8154 64.7969 44.4444 65.7001 34.401 57.8842C33.7139 57.3498 32.7241 57.4733 32.1895 58.16C31.6549 58.8469 31.7786 59.837 32.4655 60.3715C37.6108 64.3758 43.7653 66.3454 49.9003 66.3454C57.2337 66.3454 64.5394 63.5307 70.0583 58.0118C78.7773 49.293 80.9035 36.0453 75.3492 25.0467Z" fill="#383838"/>
<path d="M71.2775 19.0446C70.887 18.6028 70.4769 18.1664 70.0583 17.7481C69.6398 17.3295 69.2036 16.9194 68.7618 16.5289C68.1097 15.9524 67.1136 16.0141 66.5376 16.6662C65.9608 17.3182 66.0222 18.3141 66.6743 18.8905C67.0679 19.2381 67.4566 19.6037 67.8296 19.9766C68.2023 20.3496 68.5679 20.7381 68.9157 21.1317C69.2271 21.484 69.6611 21.6639 70.0972 21.6639C70.4681 21.6639 70.8404 21.5336 71.1402 21.2688C71.7925 20.6926 71.8538 19.6967 71.2775 19.0446Z" fill="#383838"/>
<path d="M87.1224 40.7052C88.1732 38.9812 88.1732 36.8397 87.122 35.1161L85.0488 31.7163C84.7757 31.2683 84.6701 30.7362 84.7517 30.2182L85.3697 26.2919C85.6847 24.2909 84.8627 22.3079 83.2248 21.1163L80.0117 18.7792C79.5869 18.47 79.2849 18.019 79.1613 17.5085L78.2255 13.6415C77.7505 11.6772 76.2351 10.162 74.271 9.68657L70.4038 8.75063C69.8933 8.627 69.4419 8.32504 69.1331 7.90024L66.7956 4.68636C65.6042 3.04847 63.621 2.22601 61.6206 2.54124L57.6929 3.15921C57.1749 3.24066 56.6427 3.13519 56.195 2.86214L52.7946 0.788307C51.0708 -0.262867 48.9294 -0.262671 47.2056 0.788307L43.8055 2.86155C43.3579 3.1348 42.8261 3.23988 42.3075 3.15863L38.3809 2.54065C36.3805 2.22581 34.3971 3.04788 33.2057 4.68578L30.8686 7.89887C30.5594 8.32368 30.1083 8.62563 29.5975 8.74926L25.7305 9.68501C23.7666 10.16 22.251 11.6754 21.7756 13.6395L20.8397 17.5067C20.716 18.0172 20.4143 18.4686 19.9893 18.7774L16.7754 21.1149C15.1375 22.3061 14.3156 24.2889 14.6303 26.2899L15.2483 30.2179C15.3297 30.736 15.2242 31.2681 14.9512 31.7157L12.8776 35.1163C11.8268 36.8401 11.8268 38.9815 12.8778 40.7052L14.951 44.1052C15.224 44.5532 15.3297 45.0853 15.2481 45.6032L14.6301 49.5298C14.3151 51.5306 15.1371 53.5138 16.775 54.7052L19.9881 57.0423C20.4129 57.3511 20.7149 57.8025 20.8385 58.313L21.7743 62.18C22.2493 64.1443 23.7647 65.6595 25.7288 66.1349L27.3436 66.5257L16.4151 90.9035C16.1828 91.4217 16.2471 92.0244 16.5836 92.4819C16.9199 92.9393 17.476 93.1805 18.0401 93.1129L26.8334 92.0615L31.8991 99.3254C32.1956 99.7502 32.6794 99.9998 33.1913 99.9998C33.2403 99.9998 33.2899 99.9975 33.3391 99.993C33.9044 99.9399 34.3975 99.5866 34.6297 99.0688L45.7909 74.1705L47.2052 75.0328C48.0671 75.5584 49.0333 75.8211 49.9997 75.8211C50.9661 75.8211 51.9323 75.5582 52.7942 75.0328L54.2595 74.1394L65.4347 99.0688C65.6669 99.5869 66.1599 99.9399 66.7253 99.993C66.7747 99.9977 66.8242 100 66.8732 100C67.3851 100 67.8691 99.7504 68.1654 99.3256L73.231 92.0617L82.0244 93.1131C82.588 93.1801 83.1445 92.9395 83.4808 92.482C83.8171 92.0246 83.8818 91.4219 83.6494 90.9037L72.7152 66.5125L74.2693 66.1365C76.2331 65.6615 77.7488 64.1461 78.2242 62.182L79.1601 58.3148C79.2837 57.8042 79.5857 57.3529 80.0105 57.0441L83.2244 54.7066C84.8623 53.5154 85.6841 51.5326 85.3695 49.5316L84.7515 45.6036C84.6701 45.0855 84.7756 44.5534 85.0486 44.1058L87.1224 40.7052ZM32.8922 95.2399L28.8778 89.4832C28.545 89.0059 27.9758 88.7504 27.3981 88.8199L20.4295 89.6531L30.3864 67.4416C30.5684 67.5754 30.7317 67.7357 30.8663 67.9211L33.2038 71.1349C33.4258 71.4402 33.6754 71.717 33.9475 71.9635L28.7067 83.6543C28.3508 84.4486 28.7059 85.3809 29.5 85.7369C29.7094 85.8309 29.9284 85.8752 30.1436 85.8752C30.7456 85.8752 31.3206 85.5283 31.5825 84.9436L36.8048 73.2943C37.3186 73.3648 37.8477 73.3636 38.3788 73.2801L42.3065 72.6621C42.5417 72.6252 42.7794 72.6285 43.0108 72.6668L32.8922 95.2399ZM79.6353 89.6527L72.6665 88.8199C72.0882 88.7506 71.5197 89.0059 71.1869 89.4832L67.1724 95.2399L57.0495 72.658C57.2618 72.6291 57.4784 72.6291 57.6927 72.6627L61.6191 73.2806C62.1716 73.3676 62.7222 73.3648 63.2556 73.2853L68.4818 84.9439C68.7441 85.5289 69.3187 85.8756 69.9206 85.8756C70.1361 85.8756 70.355 85.8313 70.5642 85.7373C71.3583 85.3814 71.7136 84.4488 71.3576 83.6547L66.0968 71.9193C66.3505 71.6838 66.5851 71.423 66.7943 71.1355L69.1314 67.9224C69.2786 67.7199 69.4591 67.5463 69.6618 67.4058L79.6353 89.6527ZM84.4312 39.0642L82.3576 42.4648C81.6964 43.5495 81.4406 44.8382 81.638 46.0933L82.256 50.021C82.3859 50.847 82.0464 51.6656 81.3705 52.1574L78.1564 54.4951C77.1277 55.2435 76.396 56.3367 76.0968 57.5732L75.1609 61.4404C74.9646 62.2511 74.3392 62.8767 73.5283 63.073L69.6611 64.0088C68.4243 64.308 67.331 65.0396 66.5825 66.0685L64.2454 69.2816C63.7536 69.958 62.9353 70.297 62.1089 70.167L58.1823 69.549C56.9271 69.3515 55.6382 69.607 54.5532 70.2685L51.1534 72.3418C50.4419 72.7754 49.5575 72.7754 48.8464 72.3418L45.4458 70.2683C44.6001 69.7525 43.6305 69.4838 42.6495 69.4838C42.3721 69.4838 42.0934 69.5052 41.8171 69.5488L37.8891 70.1668C37.063 70.2968 36.2446 69.9572 35.7528 69.2812L33.4151 66.0674C32.6667 65.0386 31.5735 64.307 30.337 64.0078L26.4698 63.0718C25.659 62.8755 25.0334 62.2502 24.8371 61.4392L23.9014 57.5722C23.6022 56.3355 22.8707 55.2419 21.8416 54.4935L18.6287 52.1562C17.9526 51.6644 17.6133 50.8456 17.7434 50.0197L18.3614 46.0931C18.5588 44.8378 18.3033 43.5491 17.6418 42.4642L15.5686 39.064C15.1348 38.3524 15.1348 37.4683 15.5686 36.7569L17.6422 33.3563C18.3035 32.2716 18.5592 30.9829 18.3617 29.7278L17.7438 25.8001C17.6139 24.9741 17.9533 24.1555 18.6293 23.6637L21.8434 21.326C22.8721 20.5776 23.6037 19.4844 23.903 18.2479L24.8389 14.3807C25.0352 13.57 25.6606 12.9444 26.4715 12.7481L30.3387 11.8124C31.5754 11.5131 32.6688 10.7815 33.417 9.75258L35.7542 6.53949C36.246 5.86332 37.0643 5.52367 37.8907 5.65394L41.8173 6.27191C43.0727 6.46976 44.3616 6.2139 45.4464 5.55238L48.8462 3.47913C49.5577 3.04554 50.4421 3.04554 51.1532 3.47913L54.5538 5.55258C55.6386 6.2143 56.9276 6.46996 58.1825 6.2723L62.1105 5.65433C62.9362 5.52484 63.755 5.8639 64.2468 6.53988L66.5845 9.75376C67.3329 10.7825 68.4261 11.5141 69.6626 11.8133L73.5298 12.7493C74.3406 12.9456 74.9662 13.571 75.1624 14.3819L76.0982 18.2489C76.3974 19.4856 77.1289 20.5792 78.158 21.3276L81.371 23.6647C82.0472 24.1565 82.3865 24.9753 82.2564 25.8013L81.6384 29.7278C81.441 30.9831 81.6964 32.2718 82.358 33.3567L84.4312 36.7569C84.8652 37.4685 84.8652 38.3526 84.4312 39.0642Z" fill="#383838"/>
<path d="M68.4408 33.0074C68.0935 31.9383 67.1843 31.1918 66.0679 31.0593L56.5853 29.9349L52.5857 21.264C52.1148 20.2433 51.1239 19.6091 49.9997 19.6091C48.8757 19.6091 47.8847 20.2433 47.4138 21.264L43.4142 29.9351L33.9315 31.0595C32.8151 31.192 31.9057 31.9385 31.5587 33.0076C31.2114 34.0761 31.5083 35.2146 32.3333 35.9777L39.344 42.4611L37.4831 51.8272C37.2641 52.9299 37.6931 54.0252 38.6026 54.6858C39.1044 55.0502 39.6866 55.2348 40.2726 55.2348C40.7489 55.2348 41.2274 55.1129 41.6671 54.8668L49.9995 50.2029L58.332 54.8668C59.313 55.416 60.4871 55.3467 61.3966 54.686C62.3062 54.0252 62.7351 52.9297 62.516 51.8272L60.655 42.4613L67.6658 35.9779C68.4912 35.2148 68.788 34.0765 68.4408 33.0074ZM57.8677 40.7463C57.4654 41.1184 57.2853 41.6728 57.3919 42.2103L59.2962 51.7945L50.7693 47.0217C50.5302 46.8879 50.265 46.8209 49.9995 46.8209C49.7341 46.8209 49.4691 46.8877 49.2298 47.0217L40.7028 51.7945L42.6071 42.2103C42.7142 41.6726 42.5339 41.1184 42.1313 40.7463L34.9571 34.1115L44.6614 32.9609C45.2056 32.8965 45.6773 32.5537 45.9069 32.0562L49.9997 23.183L54.0925 32.0562C54.3222 32.5537 54.7937 32.8965 55.338 32.9609L65.042 34.1115L57.8677 40.7463Z" fill="#383838"/>
</g>
<defs>
<clipPath id="clip0">
<rect width="100" height="100" fill="white"/>
</clipPath>
</defs>
</svg>
