<svg width="50" height="50" viewBox="0 0 50 50" fill="none" xmlns="http://www.w3.org/2000/svg">
<g clip-path="url(#clip0)">
<path d="M48.1013 39.1171L38.3041 29.3201C37.1346 28.1506 35.2321 28.1506 34.0625 29.3201L31.5148 31.8677C30.7166 32.666 30.4642 33.8057 30.7557 34.8209L29.7945 35.7822C29.7942 35.7825 29.794 35.7827 29.7937 35.783C29.1111 36.4664 24.8598 35.4176 19.7209 30.2788C14.5829 25.1408 13.5338 20.8902 14.2165 20.2063C14.2165 20.2061 14.2167 20.2061 14.2167 20.2061L15.1788 19.2441C15.4503 19.3221 15.7306 19.3619 16.0111 19.3619C16.7792 19.3619 17.5471 19.0697 18.132 18.485L20.6796 15.9373C21.8491 14.7679 21.8491 12.8653 20.6796 11.6957L10.8825 1.89846C10.3161 1.33206 9.56284 1.02014 8.76177 1.02014C7.9605 1.02014 7.20757 1.33225 6.64106 1.89846L4.09321 4.44632C3.29497 5.24456 3.04263 6.3844 3.33413 7.39954C3.33413 7.39954 2.51929 8.2222 2.47876 8.27415C-0.231495 11.2867 -0.739991 16.0298 1.05679 21.7006C2.81626 27.2531 6.60923 33.135 11.7372 38.2626C16.8649 43.3904 22.7468 47.1833 28.2993 48.943C30.5297 49.6498 32.6164 50 34.5112 50C37.6179 50 40.2082 49.0578 42.0649 47.2011L42.5995 46.6666C42.867 46.7435 43.1465 46.785 43.4327 46.785C44.2339 46.785 44.9871 46.4729 45.5534 45.9067L48.1012 43.3588C49.2707 42.1894 49.2707 40.2867 48.1013 39.1171ZM8.76177 4.01917L18.559 13.8165L16.0127 16.3656C16.0127 16.3656 16.0123 16.3651 16.0114 16.3642L15.9748 16.3276L11.1127 11.4656L6.21401 6.56702L8.76177 4.01917ZM39.9443 45.0803C39.9441 45.0805 39.944 45.0806 39.9438 45.0808C37.7862 47.2381 33.9725 47.5945 29.2054 46.0837C24.1027 44.4667 18.6522 40.9359 13.8582 36.1417C9.06392 31.3476 5.53306 25.8973 3.91616 20.7945C2.40542 16.0272 2.76177 12.2134 4.91958 10.0555L4.91977 10.0553L5.19028 9.78479L12.7935 17.3879L12.0961 18.0853C12.0957 18.0858 12.0953 18.0864 12.0947 18.0869C9.20552 20.9797 12.677 27.4763 17.6003 32.3997C21.2853 36.0846 25.8516 38.9563 29.1288 38.9563C30.2307 38.9563 31.187 38.6316 31.9147 37.9038C31.915 37.9035 31.9152 37.9033 31.9155 37.903L32.6121 37.2064L40.2153 44.8095L39.9443 45.0803ZM43.4329 43.7859L33.6356 33.9886L36.1833 31.441L45.9805 41.238C45.9805 41.238 43.4337 43.7868 43.4329 43.7859Z" fill="#CC0000"/>
<path d="M37.9705 12.0297C35.118 9.17727 31.3258 7.60647 27.2924 7.60657C26.4641 7.60657 25.7927 8.27795 25.7927 9.10618C25.7927 9.9344 26.4642 10.6058 27.2924 10.6058C30.5248 10.6056 33.5637 11.8646 35.8498 14.1504C38.1355 16.4362 39.3942 19.4751 39.3941 22.7074C39.3941 23.5357 40.0655 24.2073 40.8937 24.2073C41.7219 24.2073 42.3933 23.5359 42.3933 22.7078C42.3934 18.6742 40.8225 14.8822 37.9705 12.0297Z" fill="#CC0000"/>
<path d="M43.3491 6.65107C39.0598 2.36191 33.3572 -0.0001953 27.2918 1.21112e-08C26.4636 1.21112e-08 25.7922 0.671484 25.7922 1.49961C25.7922 2.32783 26.4637 2.99922 27.2918 2.99922C32.5562 2.99902 37.5055 5.04922 41.2282 8.77178C44.9507 12.4942 47.0008 17.4436 47.0007 22.7079C47.0007 23.5361 47.6721 24.2075 48.5003 24.2075C49.3284 24.2075 49.9999 23.5361 49.9999 22.7081C50.0001 16.6425 47.638 10.9401 43.3491 6.65107Z" fill="#CC0000"/>
<path d="M32.5915 17.4082C31.1554 15.972 29.3235 15.2131 27.2931 15.2131C27.2931 15.2131 27.2926 15.2131 27.2925 15.2131C26.4643 15.2133 25.7929 15.8846 25.7931 16.7129C25.7933 17.5412 26.4648 18.2125 27.2929 18.2124C27.2931 18.2124 27.2932 18.2124 27.2934 18.2124C28.5281 18.2124 29.5974 18.6553 30.471 19.5289C31.3323 20.3902 31.7875 21.4893 31.7873 22.707C31.7871 23.5352 32.4587 24.2066 33.2867 24.2068H33.2869C34.1152 24.2068 34.7863 23.5354 34.7865 22.7074C34.7866 20.6769 34.0278 18.8445 32.5915 17.4082Z" fill="#CC0000"/>
</g>
<defs>
<clipPath id="clip0">
<rect width="50" height="50" fill="white"/>
</clipPath>
</defs>
</svg>
