<svg width="100" height="100" viewBox="0 0 100 100" fill="none" xmlns="http://www.w3.org/2000/svg">
<path d="M50.8492 68.7898C49.9697 68.7898 49.2568 69.5027 49.2568 70.3822V73.7787C49.2568 74.6582 49.9697 75.371 50.8492 75.371C51.7287 75.371 52.4416 74.6582 52.4416 73.7787V70.3822C52.4416 69.5027 51.7287 68.7898 50.8492 68.7898Z" fill="#383838"/>
<path d="M99.0359 45.974C98.4145 45.3526 97.5885 45.0104 96.7094 45.0104C96.7092 45.0104 96.709 45.0104 96.7088 45.0104L92.6211 45.011C92.5693 45.011 92.5338 44.9528 92.5229 44.8988C91.3992 39.3875 88.8795 34.1918 85.2357 29.8731C81.7139 25.6988 77.2031 22.416 72.1732 20.3541C71.3619 16.9291 69.6488 13.3979 66.2705 10.7434C62.9998 8.17345 59.7057 7.67892 59.5672 7.659C59.1109 7.59396 58.6475 7.7299 58.2986 8.03244C57.9498 8.33498 57.7496 8.77365 57.7496 9.23537V17.8342H51.9707C50.5426 12.9338 46.0137 9.34162 40.6584 9.34162C35.1895 9.34162 30.5797 13.0871 29.2568 18.1473C21.3834 19.2197 14.1396 23.0342 8.76465 28.9649C3.1127 35.2018 0 43.2752 0 51.6985C0 70.6049 9.81543 85.9883 12.824 90.2526C13.7533 91.5699 15.2754 92.3567 16.8955 92.3567H23.673C26.4242 92.3567 28.6625 90.1184 28.6625 87.3672V85.1631C30.3775 85.4272 32.1199 85.5625 33.8643 85.5625H49.257V87.3672C49.257 90.1184 51.4953 92.3567 54.2465 92.3567H61.6912C64.0283 92.3567 66.0801 90.6979 66.5697 88.4127L67.3869 84.5994C77.8525 82.0508 86.2672 74.7086 90.4088 65.1807H96.7092C98.5238 65.1807 100 63.7045 100 61.8899V48.3016C100 47.4221 99.6578 46.5957 99.0359 45.974ZM40.6582 12.5266C45.3996 12.5266 49.2568 16.384 49.2568 21.1254C49.2568 22.3379 48.9973 23.5322 48.5082 24.6285H32.808C32.3191 23.5319 32.0594 22.3379 32.0594 21.1254C32.0594 16.3838 35.9168 12.5266 40.6582 12.5266ZM96.8152 61.8895C96.8152 61.9481 96.7678 61.9957 96.709 61.9957H91.6059C92.4732 59.2801 93.007 56.4242 93.1598 53.4793C93.2055 52.6012 92.5303 51.8522 91.652 51.8067C90.7736 51.7621 90.0248 52.4361 89.9793 53.3145C89.3047 66.3207 80.4523 77.4256 68.1371 81.0981L70.3619 70.7162C70.5463 69.8563 69.9984 69.0098 69.1385 68.8256C68.2791 68.6408 67.432 69.1891 67.2478 70.049L63.4557 87.7451C63.2785 88.5717 62.5363 89.1717 61.6912 89.1717H54.2461C53.251 89.1717 52.4414 88.3621 52.4414 87.367V80.5729C52.4414 79.6934 51.7285 78.9805 50.849 78.9805C49.9695 78.9805 49.2566 79.6934 49.2566 80.5729V82.3776H33.8639C32.1168 82.3776 30.3729 82.2274 28.6621 81.9358V70.382C28.6621 69.5026 27.9492 68.7897 27.0697 68.7897C26.1902 68.7897 25.4773 69.5026 25.4773 70.382V87.3672C25.4773 88.3623 24.6678 89.1719 23.6727 89.1719H16.8955C16.3002 89.1719 15.7646 88.8967 15.4264 88.4168C12.5547 84.3459 3.18477 69.6674 3.18477 51.6983C3.18477 44.067 6.00449 36.7529 11.1244 31.1035C15.81 25.933 22.0617 22.5385 28.8797 21.4236C28.9072 22.5149 29.0861 23.5938 29.4072 24.6281H28.7686C27.8891 24.6281 27.1762 25.341 27.1762 26.2205C27.1762 27.1 27.8891 27.8129 28.7686 27.8129H52.5479C53.4273 27.8129 54.1402 27.1 54.1402 26.2205C54.1402 25.341 53.4273 24.6281 52.5479 24.6281H51.909C52.2596 23.4994 52.4416 22.318 52.4416 21.125C52.4416 21.0893 52.4393 21.0543 52.4389 21.0188H57.7494V24.5219C57.7494 25.4014 58.4623 26.1143 59.3418 26.1143C60.2213 26.1143 60.9342 25.4014 60.9342 24.5219V11.3262C63.9555 12.4695 69.6391 15.9815 69.6391 26.2207C69.6391 27.1002 70.352 27.8131 71.2314 27.8131C72.1109 27.8131 72.8238 27.1002 72.8238 26.2207C72.8238 25.5461 72.7994 24.8338 72.7436 24.0977C76.5848 25.9688 80.0309 28.643 82.8018 31.9272C86.1025 35.8395 88.385 40.5449 89.4023 45.5352C89.7166 47.0772 91.0705 48.1961 92.6217 48.1959L96.7094 48.1955C96.7201 48.1955 96.7533 48.1955 96.7844 48.2266C96.8154 48.2576 96.8154 48.2904 96.8154 48.3016V61.8895H96.8152Z" fill="#383838"/>
<path d="M82.9143 46.0467C81.926 43.3952 79.3098 41.6135 76.4051 41.6135C73.5002 41.6135 70.8844 43.395 69.8955 46.0467C69.5883 46.8708 70.0072 47.7878 70.8312 48.095C71.6555 48.4026 72.5725 47.9833 72.8795 47.1592C73.4061 45.7471 74.8228 44.7983 76.4049 44.7983C77.9869 44.7983 79.4039 45.7471 79.9303 47.1592C80.1691 47.8001 80.7766 48.1958 81.4225 48.1958C81.6074 48.1958 81.7953 48.1633 81.9785 48.095C82.8025 47.7878 83.2215 46.8706 82.9143 46.0467Z" fill="#383838"/>
<path d="M42.4818 42H35.8758C35.1946 42 34.6423 42.5452 34.6423 43.2177V52.4344H33.2335C32.5523 52.4344 32 52.9796 32 53.6521C32 54.3246 32.5523 54.8698 33.2335 54.8698H34.6423V57.6517H33.2335C32.5523 57.6517 32 58.1969 32 58.8694C32 59.5419 32.5523 60.0871 33.2335 60.0871H34.6423V62.7823C34.6423 63.4548 35.1946 64 35.8758 64C36.557 64 37.1093 63.4548 37.1093 62.7823V60.0871H42.4818C43.163 60.0871 43.7152 59.5419 43.7152 58.8694C43.7152 58.1969 43.163 57.6517 42.4818 57.6517H37.1093V54.8698H42.4818C46.0759 54.8698 49 51.9831 49 48.4349C48.9999 44.799 45.9999 42 42.4818 42ZM42.4818 52.4344H37.1093V44.4354H42.4818C44.7022 44.4354 46.5331 46.2035 46.5331 48.435C46.533 50.6403 44.7157 52.4344 42.4818 52.4344Z" fill="#383838"/>
</svg>
