<svg width="50" height="50" viewBox="0 0 50 50" fill="none" xmlns="http://www.w3.org/2000/svg">
<g clip-path="url(#clip0)">
<path d="M43.9176 23.4221C43.8646 22.6862 43.226 22.1339 42.4891 22.1856C41.7531 22.2387 41.1996 22.8782 41.2525 23.6142C41.2854 24.0688 41.302 24.5352 41.302 25C41.302 35.6505 32.6373 44.3151 21.9869 44.3151C11.3365 44.3151 2.67188 35.6504 2.67188 25C2.67188 14.3496 11.3365 5.68496 21.987 5.68496C26.2049 5.68496 30.2106 7.01973 33.571 9.54483C34.1609 9.98799 34.9982 9.86914 35.4415 9.2794C35.8849 8.68955 35.766 7.85205 35.1762 7.40889C31.3491 4.5332 26.7884 3.01318 21.9869 3.01318C9.86338 3.01309 0 12.8765 0 25C0 37.1235 9.86338 46.9868 21.987 46.9868C34.1106 46.9868 43.9738 37.1236 43.9738 25C43.9738 24.4713 43.9548 23.9404 43.9176 23.4221Z" fill="#CC0000"/>
<path d="M48.4761 6.03225C46.444 4.00032 43.1376 4.00032 41.1056 6.03225L21.8565 25.2811L15.0329 18.4573C13.0009 16.4254 9.69442 16.4254 7.66239 18.4573C5.63036 20.4894 5.63036 23.7958 7.66239 25.8279L19.4144 37.5799C20.0878 38.2532 20.9722 38.5899 21.8565 38.5899C22.741 38.5899 23.6254 38.2532 24.2987 37.5799L48.4761 13.4026C50.5079 11.3706 50.5079 8.06438 48.4761 6.03225ZM46.5868 11.5134L22.4094 35.6909C22.1047 35.9956 21.6086 35.9956 21.3039 35.6909L9.55184 23.9388C8.56151 22.9485 8.56151 21.3372 9.55184 20.3469C10.047 19.8516 10.6973 19.6041 11.3477 19.6041C11.9982 19.6041 12.6486 19.8517 13.1436 20.3469L20.1634 27.3666C20.6157 27.8189 21.2172 28.0679 21.8566 28.0679C22.4964 28.0679 23.0978 27.8188 23.5501 27.3665L42.9949 7.92151C43.985 6.93118 45.5965 6.93118 46.5868 7.92151C47.577 8.91184 47.577 10.5231 46.5868 11.5134Z" fill="#CC0000"/>
</g>
<defs>
<clipPath id="clip0">
<rect width="50" height="50" fill="white"/>
</clipPath>
</defs>
</svg>
